<svg xmlns="http://www.w3.org/2000/svg" width="16.503" height="18.86" viewBox="0 0 16.503 18.86">
  <path id="calendar" d="M4.126,0a.59.59,0,0,1,.589.589V2.357h7.072V.589a.589.589,0,0,1,1.179,0V2.357h1.179A2.359,2.359,0,0,1,16.5,4.715V16.5a2.36,2.36,0,0,1-2.358,2.357H2.357A2.359,2.359,0,0,1,0,16.5V4.715A2.357,2.357,0,0,1,2.357,2.357H3.536V.589A.59.59,0,0,1,4.126,0Zm11.2,7.072H1.179V16.5a1.178,1.178,0,0,0,1.179,1.179H14.145A1.177,1.177,0,0,0,15.324,16.5ZM14.145,3.536H2.357A1.178,1.178,0,0,0,1.179,4.715V5.894H15.324V4.715A1.177,1.177,0,0,0,14.145,3.536Z" fill="rgba(73,80,87,0.6)"/>
</svg>
