<svg xmlns="http://www.w3.org/2000/svg" width="36.473" height="24.315" viewBox="0 0 36.473 24.315">
  <path id="money-check-dollar" d="M29.381,78.184a1.013,1.013,0,0,1,0,2.026H17.223a1.013,1.013,0,0,1,0-2.026ZM16.21,73.118a1.016,1.016,0,0,1,1.013-1.013H29.381a1.013,1.013,0,0,1,0,2.026H17.223A1.016,1.016,0,0,1,16.21,73.118Zm-6.136-2.432c.431.063,1.2.228,1.583.31a1.015,1.015,0,1,1-.519,1.963c-.253-.07-1.121-.241-1.4-.285a3.516,3.516,0,0,0-1.957.184c-.456.209-.684.475-.665.646a.872.872,0,0,0,.032.526.78.78,0,0,0,.31.323,7.811,7.811,0,0,0,1.963.76l.038.013a8.507,8.507,0,0,1,2.5,1.064,2.978,2.978,0,0,1,.988,1.19A3.03,3.03,0,0,1,13.12,79.1a3.088,3.088,0,0,1-1.855,2.261,4.475,4.475,0,0,1-1.133.31v.564a1.013,1.013,0,0,1-2.026,0v-.608a17.273,17.273,0,0,1-2.055-.614c-.112-.038-.211-.07-.291-.095A1.015,1.015,0,1,1,6.4,78.994a2.422,2.422,0,0,0,.386.133,7.834,7.834,0,0,0,1.716.456,3.255,3.255,0,0,0,1.963-.082,1.038,1.038,0,0,0,.621-1.311.89.89,0,0,0-.323-.361A6.859,6.859,0,0,0,8.84,77.05l-.133-.038a9.01,9.01,0,0,1-2.383-.981A2.874,2.874,0,0,1,5.314,74.9a2.766,2.766,0,0,1-.2-1.684,3,3,0,0,1,1.827-2.2,4.565,4.565,0,0,1,1.159-.348v-.589a1.013,1.013,0,0,1,2.026,0ZM0,68.053A4.052,4.052,0,0,1,4.053,64H32.42a4.054,4.054,0,0,1,4.053,4.053v16.21a4.056,4.056,0,0,1-4.053,4.053H4.053A4.054,4.054,0,0,1,0,84.263Zm2.026,0v16.21a2.025,2.025,0,0,0,2.026,2.026H32.42a2.024,2.024,0,0,0,2.026-2.026V68.053a2.024,2.024,0,0,0-2.026-2.026H4.053A2.025,2.025,0,0,0,2.026,68.053Z" transform="translate(0 -64)" fill="#215817"/>
</svg>
